<svg xmlns="http://www.w3.org/2000/svg" width="40" height="46" viewBox="0 0 40 46"><ellipse cx="20" cy="40" rx="14" ry="4" fill="#397294" opacity=".25"/><path d="M7 9h10v13c0 6 6 6 6 0V9h10v15c0 19-26 19-26 0Z" fill="#e95665" stroke="#714676" stroke-width="1.5"/><path d="M10 12h4v13c0 5 3 8 6 8" fill="none" stroke="#ffafa8" stroke-width="2"/><path d="M7 8h10v9H7Zm16 0h10v9H23Z" fill="#e8fdff" stroke="#527c9e" stroke-width="1.5"/><path d="m3 23-2 4 4-1m31-4 3 4-4-1" fill="none" stroke="#ffd450" stroke-width="2"/><path d="m18 3 2-3 2 3-2 3Z" fill="#fff4a0"/></svg>