<svg xmlns="http://www.w3.org/2000/svg" width="2800" height="100" viewBox="0 0 2800 100" shape-rendering="crispEdges"><title>冰晶环 · 四方向像素装扮</title><defs><g id="right-0"><rect x="40" y="82" width="21" height="1" fill="#7fcfdf"/><rect x="26" y="83" width="1" height="1" fill="#577374"/><rect x="33" y="83" width="7" height="1" fill="#7fcfdf"/><rect x="61" y="83" width="7" height="1" fill="#7fcfdf"/><rect x="74" y="83" width="1" height="1" fill="#577374"/><rect x="25" y="84" width="1" height="1" fill="#577374"/><rect x="26" y="84" width="1" height="1" fill="#eefeff"/><rect x="27" y="84" width="1" height="1" fill="#577374"/><rect x="29" y="84" width="4" height="1" fill="#7fcfdf"/><rect x="68" y="84" width="4" height="1" fill="#7fcfdf"/><rect x="73" y="84" width="1" height="1" fill="#577374"/><rect x="74" y="84" width="1" height="1" fill="#eefeff"/><rect x="75" y="84" width="1" height="1" fill="#577374"/><rect x="24" y="85" width="1" height="1" fill="#577374"/><rect x="25" y="85" width="2" height="1" fill="#eefeff"/><rect x="27" y="85" width="1" height="1" fill="#b5f0f1"/><rect x="28" y="85" width="1" height="1" fill="#577374"/><rect x="72" y="85" width="1" height="1" fill="#577374"/><rect x="73" y="85" width="2" height="1" fill="#eefeff"/><rect x="75" y="85" width="1" height="1" fill="#b5f0f1"/><rect x="76" y="85" width="1" height="1" fill="#577374"/><rect x="23" y="86" width="1" height="1" fill="#577374"/><rect x="24" y="86" width="1" height="1" fill="#eefeff"/><rect x="25" y="86" width="1" height="1" fill="#b5f0f1"/><rect x="26" y="86" width="1" height="1" fill="#eefeff"/><rect x="27" y="86" width="2" height="1" fill="#97c8c9"/><rect x="29" y="86" width="1" height="1" fill="#577374"/><rect x="71" y="86" width="1" height="1" fill="#577374"/><rect x="72" y="86" width="1" height="1" fill="#eefeff"/><rect x="73" y="86" width="1" height="1" fill="#b5f0f1"/><rect x="74" y="86" width="1" height="1" fill="#eefeff"/><rect x="75" y="86" width="2" height="1" fill="#97c8c9"/><rect x="77" y="86" width="1" height="1" fill="#577374"/><rect x="23" y="87" width="1" height="1" fill="#7fcfdf"/><rect x="24" y="87" width="1" height="1" fill="#577374"/><rect x="25" y="87" width="1" height="1" fill="#97c8c9"/><rect x="26" y="87" width="1" height="1" fill="#eefeff"/><rect x="27" y="87" width="1" height="1" fill="#97c8c9"/><rect x="28" y="87" width="1" height="1" fill="#577374"/><rect x="72" y="87" width="1" height="1" fill="#577374"/><rect x="73" y="87" width="1" height="1" fill="#97c8c9"/><rect x="74" y="87" width="1" height="1" fill="#eefeff"/><rect x="75" y="87" width="1" height="1" fill="#97c8c9"/><rect x="76" y="87" width="1" height="1" fill="#577374"/><rect x="77" y="87" width="1" height="1" fill="#7fcfdf"/><rect x="23" y="88" width="1" height="1" fill="#7fcfdf"/><rect x="25" y="88" width="1" height="1" fill="#577374"/><rect x="26" y="88" width="1" height="1" fill="#97c8c9"/><rect x="27" y="88" width="1" height="1" fill="#577374"/><rect x="73" y="88" width="1" height="1" fill="#577374"/><rect x="74" y="88" width="1" height="1" fill="#97c8c9"/><rect x="75" y="88" width="1" height="1" fill="#577374"/><rect x="77" y="88" width="1" height="1" fill="#7fcfdf"/><rect x="23" y="89" width="1" height="1" fill="#7fcfdf"/><rect x="26" y="89" width="1" height="1" fill="#577374"/><rect x="74" y="89" width="1" height="1" fill="#577374"/><rect x="77" y="89" width="1" height="1" fill="#7fcfdf"/><rect x="24" y="90" width="2" height="1" fill="#7fcfdf"/><rect x="41" y="90" width="1" height="1" fill="#577374"/><rect x="59" y="90" width="1" height="1" fill="#577374"/><rect x="75" y="90" width="2" height="1" fill="#7fcfdf"/><rect x="26" y="91" width="3" height="1" fill="#7fcfdf"/><rect x="40" y="91" width="1" height="1" fill="#577374"/><rect x="41" y="91" width="1" height="1" fill="#eefeff"/><rect x="42" y="91" width="1" height="1" fill="#577374"/><rect x="58" y="91" width="1" height="1" fill="#577374"/><rect x="59" y="91" width="1" height="1" fill="#eefeff"/><rect x="60" y="91" width="1" height="1" fill="#577374"/><rect x="72" y="91" width="3" height="1" fill="#7fcfdf"/><rect x="29" y="92" width="4" height="1" fill="#7fcfdf"/><rect x="39" y="92" width="1" height="1" fill="#577374"/><rect x="40" y="92" width="2" height="1" fill="#eefeff"/><rect x="42" y="92" width="1" height="1" fill="#b5f0f1"/><rect x="43" y="92" width="1" height="1" fill="#577374"/><rect x="57" y="92" width="1" height="1" fill="#577374"/><rect x="58" y="92" width="2" height="1" fill="#eefeff"/><rect x="60" y="92" width="1" height="1" fill="#b5f0f1"/><rect x="61" y="92" width="1" height="1" fill="#577374"/><rect x="68" y="92" width="4" height="1" fill="#7fcfdf"/><rect x="33" y="93" width="5" height="1" fill="#7fcfdf"/><rect x="38" y="93" width="1" height="1" fill="#577374"/><rect x="39" y="93" width="1" height="1" fill="#eefeff"/><rect x="40" y="93" width="1" height="1" fill="#b5f0f1"/><rect x="41" y="93" width="1" height="1" fill="#eefeff"/><rect x="42" y="93" width="2" height="1" fill="#97c8c9"/><rect x="44" y="93" width="1" height="1" fill="#577374"/><rect x="56" y="93" width="1" height="1" fill="#577374"/><rect x="57" y="93" width="1" height="1" fill="#eefeff"/><rect x="58" y="93" width="1" height="1" fill="#b5f0f1"/><rect x="59" y="93" width="1" height="1" fill="#eefeff"/><rect x="60" y="93" width="2" height="1" fill="#97c8c9"/><rect x="62" y="93" width="1" height="1" fill="#577374"/><rect x="63" y="93" width="5" height="1" fill="#7fcfdf"/><rect x="39" y="94" width="1" height="1" fill="#577374"/><rect x="40" y="94" width="1" height="1" fill="#97c8c9"/><rect x="41" y="94" width="1" height="1" fill="#eefeff"/><rect x="42" y="94" width="1" height="1" fill="#97c8c9"/><rect x="43" y="94" width="1" height="1" fill="#577374"/><rect x="44" y="94" width="13" height="1" fill="#7fcfdf"/><rect x="57" y="94" width="1" height="1" fill="#577374"/><rect x="58" y="94" width="1" height="1" fill="#97c8c9"/><rect x="59" y="94" width="1" height="1" fill="#eefeff"/><rect x="60" y="94" width="1" height="1" fill="#97c8c9"/><rect x="61" y="94" width="1" height="1" fill="#577374"/><rect x="40" y="95" width="1" height="1" fill="#577374"/><rect x="41" y="95" width="1" height="1" fill="#97c8c9"/><rect x="42" y="95" width="1" height="1" fill="#577374"/><rect x="58" y="95" width="1" height="1" fill="#577374"/><rect x="59" y="95" width="1" height="1" fill="#97c8c9"/><rect x="60" y="95" width="1" height="1" fill="#577374"/><rect x="41" y="96" width="1" height="1" fill="#577374"/><rect x="59" y="96" width="1" height="1" fill="#577374"/></g><g id="left-0"><rect x="39" y="82" width="21" height="1" fill="#7fcfdf"/><rect x="25" y="83" width="1" height="1" fill="#577374"/><rect x="32" y="83" width="7" height="1" fill="#7fcfdf"/><rect x="60" y="83" width="7" height="1" fill="#7fcfdf"/><rect x="73" y="83" width="1" height="1" fill="#577374"/><rect x="24" y="84" width="1" height="1" fill="#577374"/><rect x="25" y="84" width="1" height="1" fill="#eefeff"/><rect x="26" y="84" width="1" height="1" fill="#577374"/><rect x="28" y="84" width="4" height="1" fill="#7fcfdf"/><rect x="67" y="84" width="4" height="1" fill="#7fcfdf"/><rect x="72" y="84" width="1" height="1" fill="#577374"/><rect x="73" y="84" width="1" height="1" fill="#eefeff"/><rect x="74" y="84" width="1" height="1" fill="#577374"/><rect x="23" y="85" width="1" height="1" fill="#577374"/><rect x="24" y="85" width="1" height="1" fill="#b5f0f1"/><rect x="25" y="85" width="2" height="1" fill="#eefeff"/><rect x="27" y="85" width="1" height="1" fill="#577374"/><rect x="71" y="85" width="1" height="1" fill="#577374"/><rect x="72" y="85" width="1" height="1" fill="#b5f0f1"/><rect x="73" y="85" width="2" height="1" fill="#eefeff"/><rect x="75" y="85" width="1" height="1" fill="#577374"/><rect x="22" y="86" width="1" height="1" fill="#577374"/><rect x="23" y="86" width="2" height="1" fill="#97c8c9"/><rect x="25" y="86" width="1" height="1" fill="#eefeff"/><rect x="26" y="86" width="1" height="1" fill="#b5f0f1"/><rect x="27" y="86" width="1" height="1" fill="#eefeff"/><rect x="28" y="86" width="1" height="1" fill="#577374"/><rect x="70" y="86" width="1" height="1" fill="#577374"/><rect x="71" y="86" width="2" height="1" fill="#97c8c9"/><rect x="73" y="86" width="1" height="1" fill="#eefeff"/><rect x="74" y="86" width="1" height="1" fill="#b5f0f1"/><rect x="75" y="86" width="1" height="1" fill="#eefeff"/><rect x="76" y="86" width="1" height="1" fill="#577374"/><rect x="22" y="87" width="1" height="1" fill="#7fcfdf"/><rect x="23" y="87" width="1" height="1" fill="#577374"/><rect x="24" y="87" width="1" height="1" fill="#97c8c9"/><rect x="25" y="87" width="1" height="1" fill="#eefeff"/><rect x="26" y="87" width="1" height="1" fill="#97c8c9"/><rect x="27" y="87" width="1" height="1" fill="#577374"/><rect x="71" y="87" width="1" height="1" fill="#577374"/><rect x="72" y="87" width="1" height="1" fill="#97c8c9"/><rect x="73" y="87" width="1" height="1" fill="#eefeff"/><rect x="74" y="87" width="1" height="1" fill="#97c8c9"/><rect x="75" y="87" width="1" height="1" fill="#577374"/><rect x="76" y="87" width="1" height="1" fill="#7fcfdf"/><rect x="22" y="88" width="1" height="1" fill="#7fcfdf"/><rect x="24" y="88" width="1" height="1" fill="#577374"/><rect x="25" y="88" width="1" height="1" fill="#97c8c9"/><rect x="26" y="88" width="1" height="1" fill="#577374"/><rect x="72" y="88" width="1" height="1" fill="#577374"/><rect x="73" y="88" width="1" height="1" fill="#97c8c9"/><rect x="74" y="88" width="1" height="1" fill="#577374"/><rect x="76" y="88" width="1" height="1" fill="#7fcfdf"/><rect x="22" y="89" width="1" height="1" fill="#7fcfdf"/><rect x="25" y="89" width="1" height="1" fill="#577374"/><rect x="73" y="89" width="1" height="1" fill="#577374"/><rect x="76" y="89" width="1" height="1" fill="#7fcfdf"/><rect x="23" y="90" width="2" height="1" fill="#7fcfdf"/><rect x="40" y="90" width="1" height="1" fill="#577374"/><rect x="58" y="90" width="1" height="1" fill="#577374"/><rect x="74" y="90" width="2" height="1" fill="#7fcfdf"/><rect x="25" y="91" width="3" height="1" fill="#7fcfdf"/><rect x="39" y="91" width="1" height="1" fill="#577374"/><rect x="40" y="91" width="1" height="1" fill="#eefeff"/><rect x="41" y="91" width="1" height="1" fill="#577374"/><rect x="57" y="91" width="1" height="1" fill="#577374"/><rect x="58" y="91" width="1" height="1" fill="#eefeff"/><rect x="59" y="91" width="1" height="1" fill="#577374"/><rect x="71" y="91" width="3" height="1" fill="#7fcfdf"/><rect x="28" y="92" width="4" height="1" fill="#7fcfdf"/><rect x="38" y="92" width="1" height="1" fill="#577374"/><rect x="39" y="92" width="1" height="1" fill="#b5f0f1"/><rect x="40" y="92" width="2" height="1" fill="#eefeff"/><rect x="42" y="92" width="1" height="1" fill="#577374"/><rect x="56" y="92" width="1" height="1" fill="#577374"/><rect x="57" y="92" width="1" height="1" fill="#b5f0f1"/><rect x="58" y="92" width="2" height="1" fill="#eefeff"/><rect x="60" y="92" width="1" height="1" fill="#577374"/><rect x="67" y="92" width="4" height="1" fill="#7fcfdf"/><rect x="32" y="93" width="5" height="1" fill="#7fcfdf"/><rect x="37" y="93" width="1" height="1" fill="#577374"/><rect x="38" y="93" width="2" height="1" fill="#97c8c9"/><rect x="40" y="93" width="1" height="1" fill="#eefeff"/><rect x="41" y="93" width="1" height="1" fill="#b5f0f1"/><rect x="42" y="93" width="1" height="1" fill="#eefeff"/><rect x="43" y="93" width="1" height="1" fill="#577374"/><rect x="55" y="93" width="1" height="1" fill="#577374"/><rect x="56" y="93" width="2" height="1" fill="#97c8c9"/><rect x="58" y="93" width="1" height="1" fill="#eefeff"/><rect x="59" y="93" width="1" height="1" fill="#b5f0f1"/><rect x="60" y="93" width="1" height="1" fill="#eefeff"/><rect x="61" y="93" width="1" height="1" fill="#577374"/><rect x="62" y="93" width="5" height="1" fill="#7fcfdf"/><rect x="38" y="94" width="1" height="1" fill="#577374"/><rect x="39" y="94" width="1" height="1" fill="#97c8c9"/><rect x="40" y="94" width="1" height="1" fill="#eefeff"/><rect x="41" y="94" width="1" height="1" fill="#97c8c9"/><rect x="42" y="94" width="1" height="1" fill="#577374"/><rect x="43" y="94" width="13" height="1" fill="#7fcfdf"/><rect x="56" y="94" width="1" height="1" fill="#577374"/><rect x="57" y="94" width="1" height="1" fill="#97c8c9"/><rect x="58" y="94" width="1" height="1" fill="#eefeff"/><rect x="59" y="94" width="1" height="1" fill="#97c8c9"/><rect x="60" y="94" width="1" height="1" fill="#577374"/><rect x="39" y="95" width="1" height="1" fill="#577374"/><rect x="40" y="95" width="1" height="1" fill="#97c8c9"/><rect x="41" y="95" width="1" height="1" fill="#577374"/><rect x="57" y="95" width="1" height="1" fill="#577374"/><rect x="58" y="95" width="1" height="1" fill="#97c8c9"/><rect x="59" y="95" width="1" height="1" fill="#577374"/><rect x="40" y="96" width="1" height="1" fill="#577374"/><rect x="58" y="96" width="1" height="1" fill="#577374"/></g></defs><use href="#right-0" x="0"/><use href="#right-0" x="100"/><use href="#right-0" x="200"/><use href="#right-0" x="300"/><use href="#right-0" x="400"/><use href="#right-0" x="500"/><use href="#right-0" x="600"/><use href="#right-0" x="700"/><use href="#right-0" x="800"/><use href="#right-0" x="900"/><use href="#right-0" x="1000"/><use href="#right-0" x="1100"/><use href="#right-0" x="1200"/><use href="#right-0" x="1300"/><use href="#left-0" x="1400"/><use href="#left-0" x="1500"/><use href="#left-0" x="1600"/><use href="#left-0" x="1700"/><use href="#left-0" x="1800"/><use href="#left-0" x="1900"/><use href="#left-0" x="2000"/><use href="#right-0" x="2100"/><use href="#right-0" x="2200"/><use href="#right-0" x="2300"/><use href="#right-0" x="2400"/><use href="#right-0" x="2500"/><use href="#right-0" x="2600"/><use href="#right-0" x="2700"/></svg>